<svg xmlns="http://www.w3.org/2000/svg" width="600" height="400" viewBox="0 0 600 400"><rect width="100%" height="100%" fill="#E0F2FE"/><path fill="#1E40AF" d="M157.205 195.395q0 4.54-1.52 8.33-1.51 3.79-4.24 6.52-2.74 2.74-6.59 4.25-3.84 1.51-8.55 1.51h-15.7v-41.21h15.7q4.71 0 8.55 1.52 3.85 1.53 6.59 4.25 2.73 2.72 4.24 6.51 1.52 3.79 1.52 8.32m-7.87 0q0-3.39-.9-6.08t-2.59-4.56q-1.7-1.87-4.11-2.86-2.4-1-5.43-1h-8v29.01h8q3.03 0 5.43-1 2.41-.99 4.11-2.86 1.69-1.87 2.59-4.56t.9-6.09m28.96 13.06v-4.93q-3.05.14-5.13.52-2.09.39-3.34.99t-1.79 1.39q-.55.8-.55 1.74 0 1.85 1.1 2.65t2.87.8q2.16 0 3.74-.78 1.58-.79 3.1-2.38m-14.88-15.36-1.26-2.26q5.05-4.61 12.15-4.61 2.56 0 4.58.84 2.03.84 3.42 2.34 1.4 1.49 2.13 3.57.72 2.08.72 4.56v18.47h-3.19q-1 0-1.54-.3t-.85-1.21l-.63-2.11q-1.11 1-2.17 1.75-1.05.76-2.19 1.27t-2.44.79q-1.29.27-2.86.27-1.85 0-3.42-.5t-2.71-1.5-1.77-2.48q-.62-1.48-.62-3.45 0-1.11.37-2.21.37-1.09 1.21-2.09t2.18-1.88q1.34-.89 3.29-1.54 1.95-.66 4.55-1.07 2.59-.41 5.93-.5v-1.71q0-2.93-1.26-4.34-1.25-1.42-3.62-1.42-1.71 0-2.83.4-1.13.4-1.98.9-.86.5-1.56.9t-1.55.4q-.74 0-1.26-.39-.51-.38-.82-.89m38.1 23.37q-3.82 0-5.85-2.16-2.04-2.15-2.04-5.94v-16.33h-2.99q-.57 0-.97-.37t-.4-1.11v-2.79l4.7-.77 1.48-7.98q.15-.57.54-.89.4-.31 1.03-.31h3.65v9.21h7.81v5.01h-7.81v15.85q0 1.37.67 2.13.67.77 1.84.77.65 0 1.09-.15.44-.16.77-.33t.59-.33q.25-.15.51-.15.31 0 .51.15.2.16.43.47l2.11 3.42q-1.54 1.29-3.53 1.94-2 .66-4.14.66m26.91-8.01v-4.93q-3.05.14-5.13.52-2.08.39-3.34.99-1.25.6-1.79 1.39-.54.8-.54 1.74 0 1.85 1.09 2.65 1.1.8 2.87.8 2.16 0 3.74-.78 1.59-.79 3.1-2.38m-14.88-15.36-1.25-2.26q5.04-4.61 12.14-4.61 2.56 0 4.59.84 2.02.84 3.42 2.34 1.39 1.49 2.12 3.57t.73 4.56v18.47h-3.2q-.99 0-1.54-.3-.54-.3-.85-1.21l-.63-2.11q-1.11 1-2.16 1.75-1.06.76-2.2 1.27t-2.43.79q-1.3.27-2.87.27-1.85 0-3.42-.5t-2.71-1.5-1.76-2.48q-.63-1.48-.63-3.45 0-1.11.37-2.21.37-1.09 1.21-2.09t2.18-1.88q1.34-.89 3.29-1.54 1.96-.66 4.55-1.07t5.93-.5v-1.71q0-2.93-1.26-4.34-1.25-1.42-3.62-1.42-1.71 0-2.83.4-1.13.4-1.98.9-.86.5-1.56.9-.69.4-1.55.4-.74 0-1.25-.39-.52-.38-.83-.89m50.99 2.42h5.73q2.1 0 3.67-.53t2.61-1.51 1.55-2.39q.52-1.41.52-3.15 0-1.66-.52-3-.51-1.33-1.54-2.27-1.02-.95-2.59-1.44-1.57-.5-3.7-.5h-5.73zm-7.67-20.72h13.4q4.13 0 7.15.97t4.99 2.71q1.96 1.73 2.92 4.16.95 2.42.95 5.3 0 2.99-1 5.48-.99 2.5-2.99 4.29-1.99 1.8-5 2.8-3.01.99-7.02.99h-5.73v14.51h-7.67zm40.38 13.74.43 3.3q1.37-2.62 3.25-4.12 1.88-1.49 4.45-1.49 2.02 0 3.25.88l-.46 5.27q-.14.52-.41.73t-.73.21q-.43 0-1.27-.14t-1.64-.14q-1.17 0-2.08.34t-1.64.98q-.72.65-1.28 1.56-.55.91-1.04 2.08v18.01h-7.04v-29.24h4.13q1.09 0 1.51.38.43.39.57 1.39m27.99-2.23q3.25 0 5.92 1.06 2.66 1.05 4.56 2.99 1.89 1.94 2.92 4.73 1.02 2.79 1.02 6.24 0 3.48-1.02 6.27-1.03 2.8-2.92 4.76-1.9 1.97-4.56 3.02-2.67 1.06-5.92 1.06-3.28 0-5.95-1.06-2.68-1.05-4.58-3.02-1.89-1.96-2.93-4.76-1.04-2.79-1.04-6.27 0-3.45 1.04-6.24t2.93-4.73q1.9-1.94 4.58-2.99 2.67-1.06 5.95-1.06m0 24.71q3.65 0 5.4-2.45 1.76-2.45 1.76-7.18t-1.76-7.21q-1.75-2.48-5.4-2.48-3.7 0-5.48 2.49-1.79 2.5-1.79 7.2t1.79 7.17q1.78 2.46 5.48 2.46m20.04-24.25h7.07v30.24q0 1.91-.5 3.59t-1.6 2.95-2.88 1.99q-1.78.73-4.34.73-1 0-1.86-.13-.85-.13-1.76-.41l.25-3.79q.09-.57.46-.73t1.42-.16q1.06 0 1.78-.21.73-.21 1.16-.68t.61-1.24q.19-.77.19-1.91zm8.03-8.52q0 .91-.37 1.71t-.98 1.39q-.61.6-1.45.96t-1.78.36q-.92 0-1.71-.36-.8-.36-1.4-.96-.6-.59-.96-1.39-.35-.8-.35-1.71 0-.94.35-1.77.36-.83.96-1.42.6-.6 1.4-.96.79-.36 1.71-.36.94 0 1.78.36t1.45.96q.61.59.98 1.42t.37 1.77m11.77 19.78h13.29q0-1.37-.39-2.58-.38-1.21-1.15-2.13-.77-.91-1.96-1.44-1.18-.52-2.75-.52-3.05 0-4.8 1.74-1.75 1.73-2.24 4.93m17.96 4.24h-18.1q.17 2.25.8 3.89t1.65 2.71q1.03 1.07 2.44 1.6 1.41.52 3.12.52t2.95-.4q1.24-.39 2.17-.88.92-.48 1.62-.88t1.35-.4q.89 0 1.32.65l2.02 2.57q-1.17 1.37-2.62 2.29-1.46.93-3.04 1.49-1.58.55-3.22.78t-3.18.23q-3.05 0-5.67-1.01-2.62-1.02-4.56-3t-3.05-4.9-1.11-6.77q0-2.99.97-5.63.97-2.63 2.78-4.58 1.81-1.96 4.42-3.1 2.6-1.14 5.88-1.14 2.77 0 5.1.89 2.34.88 4.02 2.58 1.68 1.69 2.64 4.16.95 2.46.95 5.63 0 1.59-.34 2.15-.34.55-1.31.55m29.73-11.88-1.86 2.56q-.31.4-.61.63t-.87.23q-.54 0-1.05-.33-.52-.33-1.23-.74t-1.7-.74q-.98-.33-2.43-.33-1.85 0-3.25.67t-2.32 1.92q-.93 1.26-1.39 3.04-.45 1.78-.45 4.03 0 2.34.5 4.16.5 1.83 1.44 3.07t2.28 1.88 3.02.64 2.72-.41q1.04-.42 1.75-.92.71-.49 1.24-.91.53-.41 1.18-.41.86 0 1.29.65l2.02 2.57q-1.17 1.37-2.54 2.29-1.36.93-2.83 1.49-1.47.55-3.02.78-1.56.23-3.1.23-2.7 0-5.1-1.01-2.39-1.02-4.19-2.95-1.79-1.94-2.83-4.75t-1.04-6.4q0-3.22.92-5.97.93-2.75 2.73-4.76 1.79-2.01 4.44-3.15t6.1-1.14q3.28 0 5.74 1.06 2.47 1.05 4.44 3.02m14.42 26.08q-3.82 0-5.86-2.16-2.04-2.15-2.04-5.94v-16.33h-2.99q-.57 0-.97-.37t-.4-1.11v-2.79l4.7-.77 1.49-7.98q.14-.57.54-.89.4-.31 1.02-.31h3.65v9.21h7.81v5.01h-7.81v15.85q0 1.37.67 2.13.67.77 1.84.77.65 0 1.1-.15.44-.16.77-.33.32-.17.58-.33.26-.15.51-.15.32 0 .52.15.2.16.42.47l2.11 3.42q-1.54 1.29-3.53 1.94-2 .66-4.13.66m28.61-29.53-3.7-.66q.42-2.96 1.65-5.2 1.22-2.23 3.06-3.73t4.22-2.25q2.38-.76 5.12-.76 2.85 0 5.14.82 2.29.81 3.92 2.25 1.62 1.44 2.49 3.37.87 1.94.87 4.19 0 1.97-.44 3.47-.44 1.49-1.27 2.6-.82 1.12-2.05 1.88-1.23.77-2.76 1.29 3.7 1.17 5.52 3.56 1.83 2.39 1.83 6.01 0 3.08-1.14 5.45-1.14 2.36-3.08 3.97t-4.49 2.44-5.4.83q-3.11 0-5.41-.72-2.31-.71-4.02-2.11-1.71-1.39-2.91-3.42-1.2-2.02-2.05-4.67l3.1-1.28q1.23-.52 2.3-.27 1.07.24 1.55 1.15.52 1 1.13 1.97t1.47 1.72q.85.76 2 1.23 1.16.47 2.76.47 1.79 0 3.13-.59 1.34-.58 2.24-1.52t1.34-2.1q.44-1.15.44-2.32 0-1.48-.31-2.69-.32-1.21-1.32-2.07-.99-.85-2.86-1.34-1.87-.48-5-.48v-5.02q2.59-.03 4.3-.48 1.71-.46 2.72-1.27 1.02-.81 1.41-1.95.4-1.14.4-2.51 0-2.91-1.62-4.42-1.63-1.51-4.33-1.51-1.26 0-2.31.36-1.06.35-1.9.99-.84.65-1.41 1.5-.57.86-.85 1.88-.49 1.31-1.27 1.74t-2.21.2"/></svg>