<svg xmlns="http://www.w3.org/2000/svg" width="600" height="400" viewBox="0 0 600 400"><rect width="100%" height="100%" fill="#E0F2FE"/><path fill="#1E40AF" d="M129.15 200.435h11.73l-4.49-12.27q-.33-.81-.69-1.94-.35-1.12-.71-2.42-.33 1.3-.69 2.44-.36 1.13-.69 1.97zm9.36-22.95 14.48 36.87h-5.3q-.89 0-1.46-.45-.56-.44-.84-1.11l-2.75-7.52h-15.28l-2.75 7.52q-.2.59-.79 1.08-.59.48-1.45.48h-5.36l14.51-36.87zm25.19 0v36.87h-6.88v-36.87zm26.42-1.02-14.79 37.97q-.43 1.17-1.39 1.76-.96.58-1.95.58h-2.68l14.89-38.09q.41-1.08 1.25-1.65.85-.57 1.97-.57zm40.39 1.02h5.18v36.87h-6.04v-23.82q0-1.43.15-3.08l-11.15 20.93q-.79 1.51-2.42 1.51h-.97q-1.63 0-2.42-1.51l-11.27-21.01q.08.84.13 1.66.05.81.05 1.5v23.82h-6.05v-36.87h5.18q.46 0 .79.02.33.03.6.13t.49.33q.21.23.42.61l11.04 20.48q.43.82.8 1.68.37.87.73 1.79.35-.95.74-1.83.38-.88.81-1.69l10.89-20.43q.21-.38.44-.61.22-.23.49-.33t.6-.13q.33-.02.79-.02m20.25 31.21h14.74v5.66h-21.6v-36.87h6.86zm38.89-12.67h5.12q1.89 0 3.29-.48 1.4-.47 2.33-1.35.94-.88 1.39-2.14.46-1.26.46-2.82 0-1.48-.46-2.68-.45-1.19-1.37-2.04-.92-.84-2.32-1.28-1.41-.45-3.32-.45h-5.12zm-6.86-18.54h11.98q3.7 0 6.4.86 2.71.87 4.47 2.43 1.75 1.55 2.61 3.72.85 2.17.85 4.74 0 2.68-.89 4.91t-2.68 3.84q-1.78 1.61-4.47 2.5t-6.29.89h-5.12v12.98h-6.86zm36.13 12.29.38 2.96q1.23-2.35 2.91-3.69t3.98-1.34q1.81 0 2.91.79l-.41 4.72q-.13.46-.37.65t-.65.19q-.39 0-1.14-.13-.75-.12-1.46-.12-1.05 0-1.87.3-.81.31-1.46.88-.65.58-1.15 1.39-.5.82-.93 1.86v16.12h-6.3v-26.16h3.7q.97 0 1.35.34.38.35.51 1.24m25.04-1.99q2.91 0 5.29.94 2.39.95 4.08 2.68 1.7 1.73 2.62 4.23.91 2.5.91 5.59 0 3.11-.91 5.61-.92 2.5-2.62 4.26-1.69 1.76-4.08 2.7-2.38.94-5.29.94-2.93 0-5.33-.94-2.39-.94-4.09-2.7t-2.63-4.26-.93-5.61q0-3.09.93-5.59t2.63-4.23 4.09-2.68q2.4-.94 5.33-.94m0 22.11q3.27 0 4.83-2.2 1.57-2.19 1.57-6.42t-1.57-6.45q-1.56-2.22-4.83-2.22-3.31 0-4.91 2.23-1.59 2.23-1.59 6.44t1.59 6.41q1.6 2.21 4.91 2.21m17.93-21.7h6.32v27.05q0 1.71-.44 3.22-.45 1.5-1.43 2.63-.98 1.14-2.58 1.79-1.59.65-3.89.65-.89 0-1.65-.11-.77-.12-1.58-.37l.22-3.4q.08-.51.41-.65t1.28-.14q.94 0 1.59-.19t1.03-.61q.39-.42.55-1.11.17-.69.17-1.71zm7.19-7.63q0 .82-.33 1.53-.33.72-.88 1.25-.55.54-1.3.86-.75.31-1.6.31-.81 0-1.53-.31-.71-.32-1.25-.86-.53-.53-.85-1.25-.32-.71-.32-1.53 0-.84.32-1.58t.85-1.27q.54-.54 1.25-.86.72-.32 1.53-.32.85 0 1.6.32t1.3.86q.55.53.88 1.27t.33 1.58m10.53 17.7h11.88q0-1.22-.34-2.31-.34-1.08-1.03-1.9-.69-.81-1.75-1.29-1.06-.47-2.46-.47-2.73 0-4.3 1.56-1.57 1.55-2 4.41m16.07 3.8h-16.2q.16 2.01.72 3.48t1.48 2.42q.91.96 2.18 1.43 1.26.47 2.79.47t2.64-.36q1.11-.35 1.94-.79.82-.43 1.45-.79.62-.35 1.21-.35.79 0 1.17.58l1.81 2.3q-1.04 1.22-2.34 2.05t-2.72 1.33q-1.41.49-2.88.7-1.47.2-2.84.2-2.73 0-5.08-.9-2.34-.91-4.08-2.68-1.73-1.77-2.73-4.39-.99-2.61-.99-6.05 0-2.68.87-5.04.86-2.36 2.48-4.1 1.62-1.75 3.96-2.77 2.33-1.02 5.26-1.02 2.48 0 4.57.79t3.59 2.31q1.51 1.51 2.36 3.72t.85 5.04q0 1.42-.3 1.92-.31.5-1.17.5m26.59-10.63-1.66 2.29q-.28.36-.54.56-.27.21-.78.21-.49 0-.94-.3-.46-.29-1.1-.66t-1.52-.66q-.88-.3-2.18-.3-1.66 0-2.91.6t-2.07 1.72q-.83 1.13-1.24 2.72t-.41 3.61q0 2.09.45 3.72.44 1.63 1.29 2.74.84 1.11 2.04 1.68 1.19.58 2.7.58 1.5 0 2.43-.37t1.57-.82q.64-.44 1.11-.81t1.06-.37q.76 0 1.15.58l1.81 2.3q-1.05 1.22-2.27 2.05-1.23.83-2.54 1.33-1.31.49-2.7.7-1.39.2-2.77.2-2.42 0-4.56-.9-2.15-.91-3.75-2.64-1.61-1.74-2.54-4.25t-.93-5.72q0-2.88.83-5.34.83-2.47 2.43-4.26 1.61-1.8 3.98-2.82t5.46-1.02q2.93 0 5.14.94 2.2.95 3.96 2.71m12.91 23.33q-3.42 0-5.25-1.93-1.82-1.92-1.82-5.31v-14.62h-2.68q-.51 0-.86-.33-.36-.33-.36-.99v-2.5l4.21-.69 1.32-7.14q.13-.51.49-.79t.92-.28h3.26v8.24h6.99v4.48h-6.99v14.18q0 1.23.6 1.91.6.69 1.64.69.59 0 .99-.14.39-.14.68-.29.3-.15.53-.29t.46-.14q.28 0 .46.14.17.14.38.42l1.88 3.06q-1.37 1.14-3.16 1.73-1.78.59-3.69.59m26.46-14.31h11.22v-12.06q0-1.71.23-3.77zm16.71 0h4.64v3.65q0 .51-.33.88-.34.37-.95.37h-3.36v9h-5.49v-9h-15.55q-.64 0-1.12-.4-.49-.39-.61-.98l-.67-3.19 17.47-23.33h5.97z"/></svg>