<svg xmlns="http://www.w3.org/2000/svg" width="600" height="400" viewBox="0 0 600 400"><rect width="100%" height="100%" fill="#E0F2FE"/><path fill="#1E40AF" d="M171.78 174.835h6.01L165 216.045h-6.93l-9-28.16q-.38-1.02-.69-2.51-.17.72-.34 1.34-.17.63-.37 1.17l-9.09 28.16h-6.96l-12.77-41.21h6.42q.99 0 1.66.47t.9 1.27l7.01 24.65q.23.91.45 1.98l.44 2.24q.22-1.2.5-2.25.27-1.06.58-1.97l8.09-24.65q.23-.66.9-1.2t1.64-.54h2.25q1 0 1.63.48.62.49.94 1.26l8.06 24.65q.6 1.77 1.09 4.08.37-2.26.82-4.08l7.01-24.65q.17-.72.87-1.23t1.67-.51m15.53 23.23h13.28q0-1.37-.38-2.58-.39-1.21-1.16-2.13-.77-.91-1.95-1.44-1.18-.52-2.75-.52-3.05 0-4.8 1.74-1.75 1.73-2.24 4.93m17.96 4.24h-18.1q.17 2.25.8 3.89.62 1.64 1.65 2.71t2.44 1.6q1.41.52 3.12.52t2.95-.4q1.24-.39 2.16-.88.93-.48 1.63-.88t1.35-.4q.89 0 1.31.65l2.03 2.57q-1.17 1.37-2.63 2.29-1.45.93-3.03 1.49-1.58.55-3.22.78t-3.18.23q-3.05 0-5.67-1.01-2.62-1.02-4.56-3t-3.05-4.9-1.11-6.77q0-2.99.97-5.63.97-2.63 2.78-4.58 1.81-1.96 4.41-3.1 2.61-1.14 5.89-1.14 2.76 0 5.1.89 2.34.88 4.02 2.58 1.68 1.69 2.64 4.16.95 2.46.95 5.63 0 1.59-.34 2.15-.34.55-1.31.55m13.96-6.95v13.11q1.2 1.45 2.61 2.05t2.98.6q1.62 0 2.92-.58 1.3-.59 2.21-1.83t1.39-3.16q.49-1.93.49-4.61 0-4.81-1.6-6.96-1.59-2.16-4.59-2.16-2.02 0-3.53.93t-2.88 2.61m0-21.66v16.7q1.77-1.85 3.92-2.95t4.92-1.1q2.53 0 4.57 1t3.48 2.86q1.44 1.87 2.21 4.52t.77 5.96q0 3.56-.89 6.47-.88 2.9-2.52 4.97t-3.95 3.21q-2.3 1.14-5.13 1.14-1.36 0-2.48-.27-1.11-.27-2.05-.76-.94-.48-1.72-1.18-.79-.7-1.5-1.55l-.31 1.96q-.17.74-.59 1.06-.41.31-1.12.31h-4.65v-42.35zm47.94 21.86h5.73q2.11 0 3.67-.53 1.57-.53 2.61-1.51t1.56-2.39q.51-1.41.51-3.15 0-1.66-.51-3-.52-1.33-1.54-2.27-1.03-.95-2.6-1.44-1.56-.5-3.7-.5h-5.73zm-7.67-20.72h13.4q4.13 0 7.15.97t4.99 2.71q1.97 1.73 2.92 4.16.95 2.42.95 5.3 0 2.99-.99 5.48-1 2.5-3 4.29-1.99 1.8-5 2.8-3 .99-7.02.99h-5.73v14.51h-7.67zm40.39 13.74.42 3.3q1.37-2.62 3.25-4.12 1.88-1.49 4.45-1.49 2.02 0 3.25.88l-.46 5.27q-.14.52-.41.73t-.73.21q-.42 0-1.27-.14-.84-.14-1.63-.14-1.17 0-2.08.34-.92.34-1.64.98-.73.65-1.29 1.56-.55.91-1.04 2.08v18.01h-7.04v-29.24h4.14q1.08 0 1.51.38.42.39.57 1.39m27.98-2.23q3.25 0 5.92 1.06 2.66 1.05 4.56 2.99 1.89 1.94 2.92 4.73t1.03 6.24q0 3.48-1.03 6.27-1.03 2.8-2.92 4.76-1.9 1.97-4.56 3.02-2.67 1.06-5.92 1.06-3.27 0-5.95-1.06-2.68-1.05-4.58-3.02-1.89-1.96-2.93-4.76-1.04-2.79-1.04-6.27 0-3.45 1.04-6.24t2.93-4.73q1.9-1.94 4.58-2.99 2.68-1.06 5.95-1.06m0 24.71q3.65 0 5.4-2.45 1.76-2.45 1.76-7.18t-1.76-7.21q-1.75-2.48-5.4-2.48-3.7 0-5.48 2.49-1.78 2.5-1.78 7.2t1.78 7.17q1.78 2.46 5.48 2.46m20.04-24.25h7.07v30.24q0 1.91-.5 3.59t-1.6 2.95q-1.09 1.27-2.88 1.99-1.78.73-4.34.73-1 0-1.85-.13-.86-.13-1.77-.41l.26-3.79q.08-.57.45-.73t1.43-.16q1.05 0 1.78-.21.72-.21 1.15-.68t.61-1.24q.19-.77.19-1.91zm8.04-8.52q0 .91-.37 1.71t-.99 1.39q-.61.6-1.45.96t-1.78.36q-.91 0-1.71-.36t-1.4-.96q-.6-.59-.95-1.39-.36-.8-.36-1.71 0-.94.36-1.77.35-.83.95-1.42.6-.6 1.4-.96t1.71-.36q.94 0 1.78.36t1.45.96q.62.59.99 1.42t.37 1.77m11.77 19.78H381q0-1.37-.39-2.58-.38-1.21-1.15-2.13-.77-.91-1.95-1.44-1.19-.52-2.75-.52-3.05 0-4.81 1.74-1.75 1.73-2.23 4.93m17.95 4.24h-18.1q.18 2.25.8 3.89.63 1.64 1.66 2.71 1.02 1.07 2.43 1.6 1.41.52 3.12.52t2.95-.4q1.24-.39 2.17-.88.93-.48 1.62-.88.7-.4 1.36-.4.88 0 1.31.65l2.02 2.57q-1.17 1.37-2.62 2.29-1.45.93-3.04 1.49-1.58.55-3.22.78-1.63.23-3.17.23-3.05 0-5.68-1.01-2.62-1.02-4.56-3-1.93-1.98-3.04-4.9-1.12-2.92-1.12-6.77 0-2.99.97-5.63.97-2.63 2.78-4.58 1.81-1.96 4.42-3.1t5.88-1.14q2.77 0 5.11.89 2.33.88 4.01 2.58 1.69 1.69 2.64 4.16.96 2.46.96 5.63 0 1.59-.35 2.15-.34.55-1.31.55m29.73-11.88-1.85 2.56q-.32.4-.62.63t-.87.23q-.54 0-1.05-.33t-1.23-.74q-.71-.41-1.69-.74-.99-.33-2.44-.33-1.85 0-3.25.67-1.39.67-2.32 1.92-.93 1.26-1.38 3.04-.46 1.78-.46 4.03 0 2.34.5 4.16.5 1.83 1.44 3.07t2.28 1.88 3.02.64 2.72-.41q1.04-.42 1.75-.92.72-.49 1.24-.91.53-.41 1.19-.41.85 0 1.28.65l2.02 2.57q-1.17 1.37-2.53 2.29-1.37.93-2.84 1.49-1.47.55-3.02.78t-3.09.23q-2.71 0-5.1-1.01-2.4-1.02-4.19-2.95-1.8-1.94-2.84-4.75t-1.04-6.4q0-3.22.93-5.97.92-2.75 2.72-4.76 1.79-2.01 4.44-3.15t6.1-1.14q3.28 0 5.75 1.06 2.46 1.05 4.43 3.02m14.42 26.08q-3.82 0-5.86-2.16-2.04-2.15-2.04-5.94v-16.33h-2.99q-.57 0-.97-.37t-.4-1.11v-2.79l4.71-.77 1.48-7.98q.14-.57.54-.89.4-.31 1.03-.31h3.64v9.21h7.81v5.01h-7.81v15.85q0 1.37.67 2.13.67.77 1.84.77.66 0 1.1-.15.44-.16.77-.33t.58-.33q.26-.15.52-.15.31 0 .51.15.2.16.43.47l2.11 3.42q-1.54 1.29-3.54 1.94-1.99.66-4.13.66m43.92-5.73h7.41v5.27h-22.8v-5.27h8.35v-24.03q0-1.42.08-2.93l-5.92 4.96q-.52.39-1.02.49t-.94.02q-.44-.09-.78-.3t-.51-.47l-2.23-3.05 12.57-10.69h5.79z"/></svg>