<svg xmlns="http://www.w3.org/2000/svg" width="600" height="400" viewBox="0 0 600 400"><rect width="100%" height="100%" fill="#E0F2FE"/><path fill="#1E40AF" d="M158.265 171.7h6.95l-18.69 46.27h-7.78l-18.68-46.27h6.91q1.12 0 1.82.54.71.55 1.06 1.41l10.91 28.22q.54 1.38 1.04 3.03t.94 3.44q.39-1.79.84-3.44.44-1.65.99-3.03l10.85-28.22q.25-.74 1-1.34.76-.61 1.84-.61m21.48 28.8h14.72l-5.64-15.39q-.41-1.03-.86-2.44-.45-1.4-.9-3.04-.41 1.64-.86 3.06t-.86 2.48zm11.74-28.8 18.18 46.27h-6.66q-1.12 0-1.82-.56-.71-.56-1.06-1.39l-3.46-9.44h-19.16l-3.46 9.44q-.26.73-.99 1.34-.74.61-1.83.61h-6.72l18.21-46.27zm47.14 23.26h6.43q2.37 0 4.13-.59t2.92-1.7q1.17-1.1 1.75-2.68.57-1.59.57-3.54 0-1.86-.57-3.36-.58-1.5-1.73-2.56t-2.91-1.62-4.16-.56h-6.43zm-8.61-23.26h15.04q4.64 0 8.03 1.09 3.39 1.08 5.6 3.04 2.21 1.95 3.28 4.67t1.07 5.95q0 3.36-1.12 6.16t-3.36 4.82q-2.24 2.01-5.61 3.13-3.38 1.12-7.89 1.12h-6.43v16.29h-8.61zm45.34 15.42.48 3.71q1.54-2.94 3.65-4.62t4.99-1.68q2.27 0 3.65.99l-.51 5.92q-.16.58-.47.82-.3.24-.81.24-.48 0-1.43-.16-.94-.16-1.84-.16-1.31 0-2.33.38-1.03.39-1.84 1.11-.82.72-1.44 1.74-.63 1.02-1.17 2.34v20.22h-7.9v-32.83h4.64q1.21 0 1.69.43t.64 1.55m31.43-2.49q3.64 0 6.64 1.18 2.99 1.18 5.12 3.36 2.12 2.18 3.28 5.31 1.15 3.14 1.15 7.01 0 3.9-1.15 7.04-1.16 3.14-3.28 5.34-2.13 2.21-5.12 3.4-3 1.18-6.64 1.18-3.68 0-6.69-1.18-3.01-1.19-5.14-3.4-2.13-2.2-3.29-5.34-1.17-3.14-1.17-7.04 0-3.87 1.17-7.01 1.16-3.13 3.29-5.31t5.14-3.36 6.69-1.18m0 27.74q4.09 0 6.06-2.75t1.97-8.07q0-5.31-1.97-8.09-1.97-2.79-6.06-2.79-4.16 0-6.16 2.8t-2 8.08 2 8.05 6.16 2.77m22.49-27.23h7.94v33.95q0 2.14-.56 4.03t-1.79 3.31q-1.24 1.43-3.24 2.24-2 .82-4.88.82-1.12 0-2.08-.14-.96-.15-1.98-.47l.29-4.25q.09-.64.51-.82t1.6-.18 2-.24 1.3-.76q.48-.53.68-1.4.21-.86.21-2.14zm9.03-9.57q0 1.02-.42 1.92t-1.1 1.57q-.69.67-1.64 1.07-.94.4-2 .4-1.02 0-1.92-.4-.89-.4-1.56-1.07-.68-.67-1.08-1.57t-.4-1.92q0-1.06.4-1.98.4-.93 1.08-1.6.67-.68 1.56-1.08.9-.4 1.92-.4 1.06 0 2 .4.95.4 1.64 1.08.68.67 1.1 1.6.42.92.42 1.98m13.21 22.21h14.91q0-1.54-.43-2.9t-1.29-2.38q-.87-1.03-2.2-1.62-1.32-.59-3.08-.59-3.43 0-5.4 1.95-1.96 1.95-2.51 5.54m20.16 4.77h-20.32q.19 2.52.9 4.36.7 1.84 1.85 3.04 1.16 1.2 2.74 1.8 1.58.59 3.5.59t3.32-.45q1.39-.45 2.43-.99 1.04-.55 1.82-.99.79-.45 1.52-.45.99 0 1.47.73l2.28 2.88q-1.32 1.54-2.95 2.58t-3.41 1.66q-1.77.63-3.61.88-1.84.26-3.57.26-3.42 0-6.37-1.14-2.94-1.13-5.12-3.36-2.17-2.22-3.42-5.5t-1.25-7.6q0-3.36 1.09-6.32t3.12-5.15 4.96-3.47 6.61-1.28q3.1 0 5.72.99 2.63.99 4.52 2.89 1.88 1.91 2.96 4.68 1.07 2.76 1.07 6.32 0 1.79-.39 2.41-.38.63-1.47.63m33.38-13.35-2.08 2.88q-.35.45-.69.71-.34.25-.98.25-.6 0-1.18-.37-.58-.36-1.38-.83-.8-.46-1.9-.83t-2.74-.37q-2.08 0-3.64.75-1.57.76-2.61 2.16-1.04 1.41-1.55 3.41-.52 2-.52 4.53 0 2.62.56 4.67t1.62 3.44 2.56 2.11 3.39.72 3.06-.46 1.97-1.02 1.39-1.03q.59-.46 1.33-.46.96 0 1.44.73l2.27 2.88q-1.31 1.54-2.85 2.58t-3.18 1.66q-1.65.63-3.4.88-1.74.26-3.47.26-3.04 0-5.73-1.14-2.68-1.13-4.7-3.31-2.02-2.17-3.18-5.33-1.17-3.15-1.17-7.18 0-3.62 1.04-6.7 1.04-3.09 3.05-5.35 2.02-2.25 5-3.53 2.97-1.28 6.84-1.28 3.68 0 6.45 1.18t4.98 3.39m16.19 29.28q-4.29 0-6.58-2.41-2.28-2.42-2.28-6.68v-18.33h-3.36q-.64 0-1.09-.42-.45-.41-.45-1.25v-3.13l5.28-.87 1.66-8.96q.16-.64.61-.99t1.15-.35h4.1v10.34h8.77v5.63h-8.77v17.79q0 1.54.75 2.4t2.07.86q.73 0 1.23-.17.49-.18.86-.37t.66-.37q.29-.17.57-.17.36 0 .58.17.22.18.48.53l2.37 3.84q-1.73 1.44-3.97 2.18-2.24.73-4.64.73m44.03-7.87h11.87q1.28 0 2.04.72.75.72.75 1.9v4.74h-31.75v-2.62q0-.8.34-1.68t1.07-1.59l14.05-14.08q1.76-1.79 3.15-3.42t2.32-3.23 1.43-3.25q.49-1.65.49-3.47 0-1.67-.48-2.93-.48-1.27-1.36-2.13t-2.11-1.3q-1.23-.43-2.77-.43-1.41 0-2.61.4t-2.12 1.12q-.93.72-1.57 1.68t-.96 2.11q-.55 1.48-1.41 1.96t-2.5.22l-4.16-.74q.48-3.32 1.86-5.84 1.38-2.51 3.44-4.19t4.74-2.53q2.67-.84 5.74-.84 3.2 0 5.86.94 2.65.94 4.54 2.67t2.94 4.16q1.06 2.43 1.06 5.41 0 2.56-.75 4.74-.75 2.17-2.02 4.16-1.26 1.98-2.96 3.84-1.69 1.85-3.55 3.77l-10.43 10.66q1.5-.45 2.99-.69t2.83-.24"/></svg>